<?xml version="1.0" encoding="UTF-8" standalone="no"?><!DOCTYPE svg PUBLIC "-//W3C//DTD SVG 1.1//EN" "http://www.w3.org/Graphics/SVG/1.1/DTD/svg11.dtd"><svg width="100%" height="100%" viewBox="0 0 875 617" version="1.1" xmlns="http://www.w3.org/2000/svg" xmlns:xlink="http://www.w3.org/1999/xlink" xml:space="preserve" xmlns:serif="http://www.serif.com/" style="fill-rule:evenodd;clip-rule:evenodd;stroke-linecap:round;stroke-linejoin:round;stroke-miterlimit:1.5;"><g id="Original"><g><circle cx="437.502" cy="308.334" r="208.297"/></g><g><g><text x="266.532px" y="279.26px" style="font-family:'TimesNewRomanPS-ItalicMT', 'Times New Roman', serif;font-style:italic;font-size:110.243px;fill:#fff;">MARLI</text></g><g><text x="306.149px" y="428.916px" style="font-family:'SnellRoundhand', 'Snell Roundhand';font-weight:500;font-style:italic;font-size:117.593px;fill:#fff;">malist</text></g><g><g><path d="M341.35,346.081c0,-0 0.943,-22.123 15.535,-21.82c-0,0 76.74,-0.226 80.098,-0.25m96.682,-21.969c0,-0 -0.942,22.12 -15.536,21.817c-0,0 -77.714,0.155 -81.146,0.152" style="fill:none;stroke:#fff;stroke-width:2.94px;"/></g><g><path d="M341.35,346.079c0,0 -1.069,-16.947 15.069,-27.012c16.316,-10.177 61.669,0.281 80.564,4.945m96.682,-21.971c-0,0 0.286,16.909 -15.85,26.974c-16.316,10.177 -61.938,-0.34 -80.832,-5.003" style="fill:none;stroke:#fff;stroke-width:2.94px;"/></g></g></g></g></svg>